#define clock_width 16
#define clock_height 16
static unsigned char clock_bits[] = {
   0xc0, 0x03, 0xf0, 0x0f, 0x7c, 0x3f, 0x7c, 0x3f, 0x7e, 0x7f, 0x7e, 0x7f,
   0x7f, 0xf7, 0x7f, 0xf9, 0x73, 0xce, 0xff, 0xff, 0xfe, 0x7f, 0xfe, 0x7f,
   0xfc, 0x3f, 0x7c, 0x3f, 0x70, 0x0f, 0xc0, 0x03 };
