#define hdd_width 12
#define hdd_height 12
static unsigned char hdd_bits[] = {
   0xfc, 0x03, 0x24, 0x02, 0xfe, 0x06, 0x06, 0x07, 0x82, 0x04, 0x63, 0x0c,
   0x03, 0x0c, 0xff, 0x0f, 0x00, 0x00, 0xff, 0x0f, 0xfd, 0x0f, 0xff, 0x0f };
